<svg width="27" height="27" viewBox="0 0 27 27" fill="none" xmlns="http://www.w3.org/2000/svg">
<path d="M20.8125 7.875C20.4787 7.875 20.1525 7.77603 19.875 7.59061C19.5975 7.40518 19.3812 7.14163 19.2535 6.83328C19.1257 6.52493 19.0923 6.18563 19.1574 5.85829C19.2225 5.53094 19.3833 5.23026 19.6193 4.99426C19.8553 4.75826 20.1559 4.59754 20.4833 4.53243C20.8106 4.46731 21.1499 4.50073 21.4583 4.62845C21.7666 4.75618 22.0302 4.97247 22.2156 5.24998C22.401 5.52748 22.5 5.85374 22.5 6.1875C22.5005 6.40924 22.4572 6.62889 22.3725 6.83384C22.2879 7.03879 22.1636 7.22501 22.0068 7.38181C21.85 7.5386 21.6638 7.66288 21.4588 7.74752C21.2539 7.83215 21.0342 7.87548 20.8125 7.875Z" fill="white"/>
<path d="M19.1248 2.2498C20.6154 2.25425 22.0436 2.84835 23.0976 3.90236C24.1516 4.95636 24.7458 6.38462 24.7502 7.8752V19.1248C24.7458 20.6154 24.1516 22.0436 23.0976 23.0976C22.0436 24.1516 20.6154 24.7458 19.1248 24.7502H7.8752C6.38462 24.7458 4.95636 24.1516 3.90236 23.0976C2.84835 22.0436 2.25425 20.6154 2.2498 19.1248V7.8752C2.25425 6.38462 2.84835 4.95636 3.90236 3.90236C4.95636 2.84835 6.38462 2.25425 7.8752 2.2498H19.1248ZM19.1248 0H7.8752C3.54375 0 0 3.54375 0 7.8752V19.1248C0 23.4562 3.54375 27 7.8752 27H19.1248C23.4562 27 27 23.4562 27 19.1248V7.8752C27 3.54375 23.4562 0 19.1248 0Z" fill="white"/>
<path d="M13.5 8.9998C14.3901 8.9998 15.2601 9.26373 16.0002 9.75822C16.7402 10.2527 17.317 10.9555 17.6576 11.7778C17.9983 12.6002 18.0874 13.505 17.9137 14.3779C17.7401 15.2509 17.3115 16.0528 16.6821 16.6821C16.0528 17.3115 15.2509 17.7401 14.3779 17.9137C13.505 18.0874 12.6002 17.9983 11.7779 17.6576C10.9555 17.317 10.2527 16.7402 9.75822 16.0002C9.26373 15.2601 8.9998 14.3901 8.9998 13.5C9.00108 12.3069 9.47562 11.163 10.3193 10.3193C11.163 9.47561 12.3069 9.00108 13.5 8.9998ZM13.5 6.75C12.165 6.75 10.8599 7.14588 9.7499 7.88758C8.63987 8.62928 7.77471 9.68349 7.26382 10.9169C6.75292 12.1503 6.61925 13.5075 6.8797 14.8169C7.14015 16.1262 7.78303 17.329 8.72703 18.273C9.67104 19.217 10.8738 19.8599 12.1831 20.1203C13.4925 20.3808 14.8497 20.2471 16.0831 19.7362C17.3165 19.2253 18.3707 18.3601 19.1124 17.2501C19.8541 16.1401 20.25 14.835 20.25 13.5C20.25 11.7098 19.5388 9.9929 18.273 8.72703C17.0071 7.46116 15.2902 6.75 13.5 6.75Z" fill="white"/>
</svg>
