<svg width="18" height="18" viewBox="0 0 18 18" fill="none" xmlns="http://www.w3.org/2000/svg">
<path d="M7.39055 14.7816C3.29732 14.7816 0 11.4841 0 7.39078C0 3.29742 3.29732 0 7.39055 0C11.4838 0 14.7811 3.29742 14.7811 7.39078C14.7811 11.4841 11.4838 14.7816 7.39055 14.7816ZM7.39055 1.13704C3.92268 1.13704 1.13701 3.9228 1.13701 7.39078C1.13701 10.8588 3.92268 13.6445 7.39055 13.6445C10.8584 13.6445 13.6441 10.8588 13.6441 7.39078C13.6441 3.9228 10.8584 1.13704 7.39055 1.13704Z" fill="black"/>
<path d="M12.8947 12.0908L17.9998 17.1961L17.196 18L12.0908 12.8947L12.8947 12.0908Z" fill="black"/>
</svg>
